<?xml version="1.0" encoding="UTF-8" standalone="no"?>
<!-- Created with Inkscape (http://www.inkscape.org/) -->

<svg
   xmlns:dc="http://purl.org/dc/elements/1.1/"
   xmlns:cc="http://creativecommons.org/ns#"
   xmlns:rdf="http://www.w3.org/1999/02/22-rdf-syntax-ns#"
   xmlns:svg="http://www.w3.org/2000/svg"
   xmlns="http://www.w3.org/2000/svg"
   xmlns:xlink="http://www.w3.org/1999/xlink"
   xmlns:sodipodi="http://sodipodi.sourceforge.net/DTD/sodipodi-0.dtd"
   xmlns:inkscape="http://www.inkscape.org/namespaces/inkscape"
   width="210mm"
   height="297mm"
   viewBox="0 0 744.09448819 1052.3622047"
   id="svg20364"
   version="1.1"
   inkscape:version="0.91 r13725"
   sodipodi:docname="002.svg">
  <defs
     id="defs20366">
    <symbol
       id="check-square-o-up">
      <title
         id="title17595">check-square-o-up</title>
      <path
         d="m 1408,606 0,-318 Q 1408,169 1323.5,84.5 1239,0 1120,0 L 288,0 Q 169,0 84.5,84.5 0,169 0,288 l 0,832 Q 0,1239 84.5,1323.5 169,1408 288,1408 l 832,0 q 63,0 117,-25 15,-7 18,-23 3,-17 -9,-29 l -49,-49 q -10,-10 -23,-10 -3,0 -9,2 -23,6 -45,6 l -832,0 q -66,0 -113,-47 -47,-47 -47,-113 l 0,-832 q 0,-66 47,-113 47,-47 113,-47 l 832,0 q 66,0 113,47 47,47 47,113 l 0,254 q 0,13 9,22 l 64,64 q 10,10 23,10 6,0 12,-3 20,-8 20,-29 z m 231,489 -814,-814 q -24,-24 -57,-24 -33,0 -57,24 L 281,711 q -24,24 -24,57 0,33 24,57 l 110,110 q 24,24 57,24 33,0 57,-24 l 263,-263 647,647 q 24,24 57,24 33,0 57,-24 l 110,-110 q 24,-24 24,-57 0,-33 -24,-57 z"
         id="path17597" />
    </symbol>
  </defs>
  <sodipodi:namedview
     id="base"
     pagecolor="#ffffff"
     bordercolor="#666666"
     borderopacity="1.0"
     inkscape:pageopacity="0.0"
     inkscape:pageshadow="2"
     inkscape:zoom="0.70710678"
     inkscape:cx="258.63001"
     inkscape:cy="471.71248"
     inkscape:document-units="px"
     inkscape:current-layer="layer1"
     showgrid="false"
     borderlayer="true"
     inkscape:window-width="1920"
     inkscape:window-height="1056"
     inkscape:window-x="0"
     inkscape:window-y="24"
     inkscape:window-maximized="1" />
  <metadata
     id="metadata20369">
    <rdf:RDF>
      <cc:Work
         rdf:about="">
        <dc:format>image/svg+xml</dc:format>
        <dc:type
           rdf:resource="http://purl.org/dc/dcmitype/StillImage" />
        <dc:title />
      </cc:Work>
    </rdf:RDF>
  </metadata>
  <g
     inkscape:groupmode="layer"
     id="layer2"
     inkscape:label="bg"
     sodipodi:insensitive="true">
    <rect
       style="opacity:1;fill:#ffffff;fill-opacity:1;stroke:none;stroke-width:3;stroke-miterlimit:4;stroke-dasharray:none;stroke-opacity:1"
       id="rect36889"
       width="772"
       height="1064"
       x="-13"
       y="-2.6377952" />
  </g>
  <g
     inkscape:label="Capa 1"
     inkscape:groupmode="layer"
     id="layer1">
    <rect
       style="color:#000000;display:inline;overflow:visible;visibility:visible;opacity:1;fill:#eeeeee;fill-opacity:1;fill-rule:nonzero;stroke:none;stroke-width:2;stroke-miterlimit:4;stroke-dasharray:none;stroke-dashoffset:0;stroke-opacity:1;marker:none;enable-background:accumulate"
       id="rect21877"
       width="674.65399"
       height="69.653999"
       x="38.510155"
       y="624.09406" />
    <rect
       y="704.35706"
       x="38.510155"
       height="69.653999"
       width="674.65399"
       id="rect21879"
       style="color:#000000;display:inline;overflow:visible;visibility:visible;opacity:1;fill:#eeeeee;fill-opacity:1;fill-rule:nonzero;stroke:none;stroke-width:2;stroke-miterlimit:4;stroke-dasharray:none;stroke-dashoffset:0;stroke-opacity:1;marker:none;enable-background:accumulate" />
    <rect
       style="color:#000000;display:inline;overflow:visible;visibility:visible;opacity:1;fill:#eeeeee;fill-opacity:1;fill-rule:nonzero;stroke:none;stroke-width:2;stroke-miterlimit:4;stroke-dasharray:none;stroke-dashoffset:0;stroke-opacity:1;marker:none;enable-background:accumulate"
       id="rect21881"
       width="674.65399"
       height="69.653999"
       x="38.510155"
       y="783.35706" />
    <rect
       y="862.62006"
       x="38.510155"
       height="69.653999"
       width="674.65399"
       id="rect21883"
       style="color:#000000;display:inline;overflow:visible;visibility:visible;opacity:1;fill:#eeeeee;fill-opacity:1;fill-rule:nonzero;stroke:none;stroke-width:2;stroke-miterlimit:4;stroke-dasharray:none;stroke-dashoffset:0;stroke-opacity:1;marker:none;enable-background:accumulate" />
    <rect
       y="545.09406"
       x="38.510155"
       height="69.653999"
       width="674.65399"
       id="rect21875"
       style="color:#000000;display:inline;overflow:visible;visibility:visible;opacity:1;fill:#eeeeee;fill-opacity:1;fill-rule:nonzero;stroke:none;stroke-width:2;stroke-miterlimit:4;stroke-dasharray:none;stroke-dashoffset:0;stroke-opacity:1;marker:none;enable-background:accumulate" />
    <g
       transform="matrix(0.0930213,0,0,0.0930213,51.875732,-1.3058754)"
       id="layer1-3"
       inkscape:label="Capa 1"
       style="fill:#444444">
      <path
         inkscape:connector-curvature="0"
         id="path20219"
         d="m 708.88837,396.33895 c -18.32045,0 -33.12607,6.33166 -44.06287,18.92336 -10.92614,12.57943 -16.37013,28.9855 -16.37013,49.00729 l 0,25.04621 c 0,20.09147 5.44599,36.50133 16.37503,49.01222 11.00774,12.51858 25.84226,18.81535 44.16108,18.81535 18.59358,0 33.60563,-6.28868 44.68645,-18.80554 11.14339,-12.50935 16.69912,-28.92611 16.69912,-49.02203 l 0,-25.04621 c 0,-20.02628 -5.55377,-36.4392 -16.69422,-49.01709 -11.15033,-12.58911 -26.19665,-18.91356 -44.79446,-18.91356 z m -467.99245,2.21934 0,105.55154 c 0,16.94838 5.16658,30.19885 15.53051,39.40323 l 0.006,0 c 10.32557,9.09806 23.84941,13.63032 40.35085,13.63032 16.70823,0 30.39952,-4.52657 40.86642,-13.62051 10.5814,-9.13186 15.86441,-22.38999 15.86441,-39.41304 l 0,-105.55154 -1.25697,0 -13.83165,0 0,105.55154 c 0,12.9201 -3.84605,22.63659 -11.519,29.49473 -7.71308,6.89399 -17.67812,10.3504 -30.12321,10.3504 -12.22976,0 -21.97348,-3.45276 -29.47508,-10.34058 -7.46782,-6.92626 -11.21948,-16.65107 -11.21948,-29.50455 l 0,-105.55154 -15.19173,0 z m 134.46197,0 52.09573,77.12229 -53.68658,79.24345 18.36852,0 44.34275,-66.8259 44.44093,66.8259 18.1574,0 -53.68659,-79.24345 51.98772,-77.12229 -18.35872,0 -42.75189,64.69986 -42.54564,-64.69986 -18.36363,0 z m 146.19209,0 0,156.36574 1.25696,0 53.1514,0 c 15.13909,0 27.3742,-3.76567 36.51611,-11.38154 l 0.006,-0.006 c 9.23744,-7.64008 13.87093,-18.65966 13.87093,-32.66663 0,-9.56225 -3.04156,-18.09687 -9.05905,-25.41938 -5.32583,-6.48081 -12.36158,-10.43254 -20.51914,-12.55009 6.43521,-2.4476 11.92394,-6.01716 15.89384,-11.24405 4.67548,-6.06347 7.02632,-13.24417 7.02629,-21.37348 0,-13.79841 -4.64901,-24.39046 -13.91509,-31.32617 l -0.01,-0.006 c -9.16493,-6.97894 -21.88967,-10.39461 -38.05297,-10.39461 l -46.16437,0 z m 264.22009,0 52.10063,77.12229 -53.68656,79.24345 18.3636,0 44.34273,-66.8259 44.44583,66.8259 18.1525,0 -53.68655,-79.24345 51.99265,-77.12229 -18.3637,0 -42.74694,64.69493 -42.54565,-64.69493 -18.36854,0 z m -76.8817,11.39134 c 14.64983,0 25.85755,4.89802 34.00707,14.75962 8.23727,9.88473 12.39297,22.93716 12.39297,39.34923 l 0,25.25733 c 0,16.62784 -4.12439,29.78747 -12.28987,39.66838 -8.07624,9.7873 -19.28348,14.65652 -34.00706,14.65652 -14.36257,0 -25.3516,-4.89352 -33.36386,-14.75471 -7.95774,-9.88033 -11.97564,-23.01016 -11.97564,-39.57019 l 0,-25.25733 c 0,-16.41919 4.01443,-29.48103 11.97564,-39.36395 7.94146,-9.85831 18.89817,-14.7449 33.26075,-14.7449 z m -172.24976,1.90019 31.07573,0 c 12.23175,0 21.38659,2.44193 27.56016,7.13922 l 0,0.006 0.006,0 c 6.15917,4.61938 9.22109,11.4256 9.22109,20.86775 0,9.2401 -2.90391,15.99739 -8.72519,20.68116 -5.76523,4.62558 -14.04971,7.01648 -24.99711,7.01648 l -34.13961,0 0,-55.70954 z m 0,68.89305 41.32795,0 c 10.97947,0 19.10814,2.87223 24.67304,8.50422 l 0.006,0.006 0.006,0 c 5.68638,5.6864 8.50422,12.87043 8.50422,21.83013 0,9.80413 -3.08869,17.22343 -9.28983,22.61573 -6.20539,5.32443 -14.77423,8.03774 -25.90548,8.03777 l -39.31973,0 0,-60.99275 z"
         style="font-style:normal;font-variant:normal;font-weight:300;font-stretch:normal;font-size:medium;line-height:125%;font-family:Roboto;-inkscape-font-specification:'Roboto Light';letter-spacing:0px;word-spacing:0px;fill:#444444;fill-opacity:1;stroke:none;stroke-width:2.51395035px;stroke-linecap:butt;stroke-linejoin:miter;stroke-opacity:1" />
      <path
         inkscape:connector-curvature="0"
         id="rect2990-1"
         d="m -68.324219,280.3457 -36.376951,51.23633 0,28.96289 -31.65625,15.05664 -0.28516,-0.13476 0,11.90234 0,177.05078 123.417971,58.30664 7.5429684,3.56055 7.5410156,-3.56055 123.419925,-58.30664 0,-188.95312 -0.23242,0.10937 -31.666021,-15.06055 0,-28.93359 -1.107421,-1.55859 -35.271485,-49.67774 -36.378906,51.23633 0,0.0508 -26.4707032,-37.28125 -26.2656248,36.99414 -0.939453,-1.32226 -35.271485,-49.67774 z m 6.435547,29.76172 14.070313,19.81641 -41.011719,0 13.90625,-19.58399 13.035156,-0.23242 z m 125.326172,0 14.070312,19.81641 -41.011718,0 13.904297,-19.58399 13.037109,-0.23242 z m -62.84960938,14.00781 14.07031238,19.81446 -41.009765,0 13.904296,-19.58399 13.03515662,-0.23047 z m -93.30664062,15.79493 19.451172,0 0,65.49609 -19.451172,-9.18945 0,-56.30664 z m 29.4375,0 19.353516,0 -0.002,79.35546 -19.353515,-9.14257 0.002,-70.21289 z m 95.886719,0 19.453125,0 -0.002,70.14648 -19.449219,9.1875 -0.002,-79.33398 z m 29.4375,0 19.353515,0 0,56.28515 -19.353515,9.14258 0,-65.42773 z m -92.285157,14.00586 19.451172,0 0,81.0039 -19.451172,-9.18945 0,-71.81445 z m 29.4375005,0 19.3535155,0 -0.002,71.9707 -19.35351562,9.14453 0.001953,-81.11523 z m 94.1835935,21.52539 17.125004,7.00195 -17.125004,8.08984 0,-15.09179 z m -198.080076,0.0254 0,15.08984 -17.12305,-8.08984 17.12305,-7 z m -16.85938,23.80859 108.335941,51.17773 0,155.58985 -108.335941,-51.17774 0,-155.58984 z m 231.75586,0 0,155.58984 -108.335935,51.17774 0,-155.58985 108.335935,-51.17773 z"
         style="color:#000000;font-style:normal;font-variant:normal;font-weight:normal;font-stretch:normal;font-size:medium;line-height:normal;font-family:sans-serif;text-indent:0;text-align:start;text-decoration:none;text-decoration-line:none;text-decoration-style:solid;text-decoration-color:#000000;letter-spacing:normal;word-spacing:normal;text-transform:none;direction:ltr;block-progression:tb;writing-mode:lr-tb;baseline-shift:baseline;text-anchor:start;white-space:normal;clip-rule:nonzero;display:inline;overflow:visible;visibility:visible;opacity:1;isolation:auto;mix-blend-mode:normal;color-interpolation:sRGB;color-interpolation-filters:linearRGB;solid-color:#000000;solid-opacity:1;fill:#444444;fill-opacity:1;fill-rule:nonzero;stroke:none;stroke-width:11.98258877;stroke-linecap:butt;stroke-linejoin:miter;stroke-miterlimit:4;stroke-dasharray:none;stroke-dashoffset:0;stroke-opacity:1;color-rendering:auto;image-rendering:auto;shape-rendering:auto;text-rendering:auto;enable-background:accumulate" />
    </g>
    <text
       sodipodi:linespacing="125%"
       id="text20333"
       y="46.495262"
       x="152.20117"
       style="font-style:normal;font-weight:normal;font-size:18.0837059px;line-height:125%;font-family:Sans;letter-spacing:0px;word-spacing:0px;fill:#aaaaaa;fill-opacity:1;stroke:none;stroke-width:1px;stroke-linecap:butt;stroke-linejoin:miter;stroke-opacity:1"
       xml:space="preserve"><tspan
         style="font-style:normal;font-variant:normal;font-weight:normal;font-stretch:normal;font-size:17.5px;font-family:'Source Sans Pro';-inkscape-font-specification:'Source Sans Pro';fill:#aaaaaa"
         y="46.495262"
         x="152.20117"
         id="tspan20335"
         sodipodi:role="line">|    Drawing</tspan></text>
    <flowRoot
       xml:space="preserve"
       id="flowRoot36880"
       style="fill:black;stroke:none;stroke-opacity:1;stroke-width:1px;stroke-linejoin:miter;stroke-linecap:butt;fill-opacity:1;font-family:sans-serif;font-style:normal;font-weight:normal;font-size:40px;line-height:125%;letter-spacing:0px;word-spacing:0px"><flowRegion
         id="flowRegion36882"><rect
           id="rect36884"
           width="106"
           height="272"
           x="-93"
           y="-212.6378" /></flowRegion><flowPara
         id="flowPara36886" /></flowRoot>    <flowRoot
       xml:space="preserve"
       id="flowRoot36895"
       style="font-style:normal;font-weight:normal;font-size:40px;line-height:125%;font-family:sans-serif;letter-spacing:0px;word-spacing:0px;fill:#777777;fill-opacity:1;stroke:none;stroke-width:1px;stroke-linecap:butt;stroke-linejoin:miter;stroke-opacity:1"
       transform="translate(0,50)"><flowRegion
         id="flowRegion36897"><rect
           id="rect36899"
           width="664"
           height="598"
           x="43"
           y="111.36221"
           style="fill:#777777" /></flowRegion><flowPara
         style="font-style:normal;font-variant:normal;font-weight:normal;font-stretch:normal;font-size:17.5px;font-family:'Source Sans Pro';-inkscape-font-specification:'Source Sans Pro';fill:#777777"
         id="flowPara36931">When a shape is selected, the customize shape pop-up appears on it's right side with all the available options this shape has. It is formed by 2 elements: the options nav on the left and the settings area on the right.</flowPara><flowPara
         style="font-style:normal;font-variant:normal;font-weight:normal;font-stretch:normal;font-size:17.5px;font-family:'Source Sans Pro';-inkscape-font-specification:'Source Sans Pro';fill:#777777"
         id="flowPara20176" /><flowPara
         style="font-style:normal;font-variant:normal;font-weight:normal;font-stretch:normal;font-size:17.5px;font-family:'Source Sans Pro';-inkscape-font-specification:'Source Sans Pro';fill:#777777"
         id="flowPara20178">Each shape has different options based on the shape you have selected. If you select more than one shape (group) the customize shape pop-up shows only the options these shapes have in common to set them at the same time. </flowPara><flowPara
         style="font-style:normal;font-variant:normal;font-weight:normal;font-stretch:normal;font-size:17.5px;font-family:'Source Sans Pro';-inkscape-font-specification:'Source Sans Pro';fill:#777777"
         id="flowPara20180" /><flowPara
         style="font-style:normal;font-variant:normal;font-weight:normal;font-stretch:normal;font-size:17.5px;font-family:'Source Sans Pro';-inkscape-font-specification:'Source Sans Pro';fill:#777777"
         id="flowPara20182" /></flowRoot>    <flowRoot
       style="font-style:normal;font-weight:normal;font-size:40px;line-height:125%;font-family:sans-serif;letter-spacing:0px;word-spacing:0px;fill:#777777;fill-opacity:1;stroke:none;stroke-width:1px;stroke-linecap:butt;stroke-linejoin:miter;stroke-opacity:1"
       id="flowRoot36911"
       xml:space="preserve"
       transform="translate(0,-6)"><flowRegion
         id="flowRegion36913"><rect
           style="fill:#777777"
           y="111.36221"
           x="43"
           height="47.999969"
           width="555"
           id="rect36915" /></flowRegion><flowPara
         style="font-style:normal;font-variant:normal;font-weight:bold;font-stretch:normal;font-size:20px;font-family:'Source Sans Pro';-inkscape-font-specification:'Source Sans Pro Bold';fill:#444444"
         id="flowPara36917">Customize shapes</flowPara></flowRoot>    <rect
       style="color:#000000;display:inline;overflow:visible;visibility:visible;opacity:1;fill:#aaaaaa;fill-opacity:1;fill-rule:nonzero;stroke:none;stroke-width:2;stroke-miterlimit:4;stroke-dasharray:none;stroke-dashoffset:0;stroke-opacity:1;marker:none;enable-background:accumulate"
       id="rect20429"
       width="69.653999"
       height="69.653999"
       x="38.510155"
       y="545.09406" />
    <rect
       y="624.09406"
       x="38.510155"
       height="69.653999"
       width="69.653999"
       id="rect20431"
       style="color:#000000;display:inline;overflow:visible;visibility:visible;opacity:1;fill:#aaaaaa;fill-opacity:1;fill-rule:nonzero;stroke:none;stroke-width:2;stroke-miterlimit:4;stroke-dasharray:none;stroke-dashoffset:0;stroke-opacity:1;marker:none;enable-background:accumulate" />
    <text
       xml:space="preserve"
       style="font-style:normal;font-weight:normal;font-size:23.2179985px;line-height:125%;font-family:Sans;letter-spacing:0px;word-spacing:0px;display:inline;fill:#444444;fill-opacity:1;stroke:none;stroke-width:1px;stroke-linecap:butt;stroke-linejoin:miter;stroke-opacity:1"
       x="66.218163"
       y="608.00653"
       id="text20435"
       sodipodi:linespacing="125%"><tspan
         sodipodi:role="line"
         x="66.218163"
         y="608.00653"
         style="font-style:normal;font-variant:normal;font-weight:normal;font-stretch:normal;font-size:8.70674992px;font-family:'Source Sans Pro';-inkscape-font-specification:'Source Sans Pro';fill:#444444"
         id="tspan20437">Box</tspan></text>
    <circle
       style="color:#000000;display:inline;overflow:visible;visibility:visible;opacity:1;fill:none;fill-opacity:1;fill-rule:nonzero;stroke:#444444;stroke-width:2;stroke-miterlimit:4;stroke-dasharray:none;stroke-dashoffset:0;stroke-opacity:1;marker:none;enable-background:accumulate"
       id="path20439"
       cx="73.337151"
       cy="653.34918"
       r="20.605974" />
    <text
       sodipodi:linespacing="125%"
       id="text20441"
       y="687.00653"
       x="62.996864"
       style="font-style:normal;font-weight:normal;font-size:23.2179985px;line-height:125%;font-family:Sans;letter-spacing:0px;word-spacing:0px;display:inline;fill:#444444;fill-opacity:1;stroke:none;stroke-width:1px;stroke-linecap:butt;stroke-linejoin:miter;stroke-opacity:1"
       xml:space="preserve"><tspan
         id="tspan20443"
         style="font-style:normal;font-variant:normal;font-weight:normal;font-stretch:normal;font-size:8.70674992px;font-family:'Source Sans Pro';-inkscape-font-specification:'Source Sans Pro';fill:#444444"
         y="687.00653"
         x="62.996864"
         sodipodi:role="line">Circle</tspan></text>
    <rect
       y="704.35706"
       x="38.510155"
       height="69.653999"
       width="69.653999"
       id="rect20445"
       style="color:#000000;display:inline;overflow:visible;visibility:visible;opacity:1;fill:#aaaaaa;fill-opacity:1;fill-rule:nonzero;stroke:none;stroke-width:2;stroke-miterlimit:4;stroke-dasharray:none;stroke-dashoffset:0;stroke-opacity:1;marker:none;enable-background:accumulate" />
    <rect
       style="color:#000000;display:inline;overflow:visible;visibility:visible;opacity:1;fill:#aaaaaa;fill-opacity:1;fill-rule:nonzero;stroke:none;stroke-width:2;stroke-miterlimit:4;stroke-dasharray:none;stroke-dashoffset:0;stroke-opacity:1;marker:none;enable-background:accumulate"
       id="rect20447"
       width="69.653999"
       height="69.653999"
       x="38.510155"
       y="783.35706" />
    <text
       sodipodi:linespacing="125%"
       id="text20451"
       y="767.26953"
       x="65.382248"
       style="font-style:normal;font-weight:normal;font-size:23.2179985px;line-height:125%;font-family:Sans;letter-spacing:0px;word-spacing:0px;display:inline;fill:#444444;fill-opacity:1;stroke:none;stroke-width:1px;stroke-linecap:butt;stroke-linejoin:miter;stroke-opacity:1"
       xml:space="preserve"><tspan
         id="tspan20453"
         style="font-style:normal;font-variant:normal;font-weight:normal;font-stretch:normal;font-size:8.70674992px;font-family:'Source Sans Pro';-inkscape-font-specification:'Source Sans Pro';fill:#444444"
         y="767.26953"
         x="65.382248"
         sodipodi:role="line">Line</tspan></text>
    <text
       xml:space="preserve"
       style="font-style:normal;font-weight:normal;font-size:23.2179985px;line-height:125%;font-family:Sans;letter-spacing:0px;word-spacing:0px;display:inline;fill:#444444;fill-opacity:1;stroke:none;stroke-width:1px;stroke-linecap:butt;stroke-linejoin:miter;stroke-opacity:1"
       x="60.840179"
       y="846.26953"
       id="text20457"
       sodipodi:linespacing="125%"><tspan
         sodipodi:role="line"
         x="60.840179"
         y="846.26953"
         style="font-style:normal;font-variant:normal;font-weight:normal;font-stretch:normal;font-size:8.70674992px;font-family:'Source Sans Pro';-inkscape-font-specification:'Source Sans Pro';fill:#444444"
         id="tspan20459">Curves</tspan></text>
    <path
       style="display:inline;fill:none;fill-rule:evenodd;stroke:#444444;stroke-width:2;stroke-linecap:butt;stroke-linejoin:miter;stroke-miterlimit:4;stroke-dasharray:none;stroke-opacity:1"
       d="M 57.124777,751.10096 89.54953,718.6762"
       id="path20461"
       inkscape:connector-curvature="0" />
    <path
       inkscape:connector-curvature="0"
       style="color:#000000;font-style:normal;font-variant:normal;font-weight:normal;font-stretch:normal;font-size:medium;line-height:normal;font-family:sans-serif;text-indent:0;text-align:start;text-decoration:none;text-decoration-line:none;text-decoration-style:solid;text-decoration-color:#000000;letter-spacing:normal;word-spacing:normal;text-transform:none;direction:ltr;block-progression:tb;writing-mode:lr-tb;baseline-shift:baseline;text-anchor:start;white-space:normal;clip-rule:nonzero;display:inline;overflow:visible;visibility:visible;opacity:1;isolation:auto;mix-blend-mode:normal;color-interpolation:sRGB;color-interpolation-filters:linearRGB;solid-color:#000000;solid-opacity:1;fill:#444444;fill-opacity:1;fill-rule:evenodd;stroke:none;stroke-width:2;stroke-linecap:butt;stroke-linejoin:miter;stroke-miterlimit:4;stroke-dasharray:none;stroke-dashoffset:0;stroke-opacity:1;color-rendering:auto;image-rendering:auto;shape-rendering:auto;text-rendering:auto;enable-background:accumulate"
       d="m 88.60852,800.5678 0,0.58045 0,1.05887 c -1.23235,10e-4 -3.52826,0.16442 -6.01311,1.19491 -3.65399,1.51536 -7.684,4.9623 -9.101278,12.28582 -1.34961,6.97398 -5.37537,9.97843 -9.11486,11.34371 -2.6382,0.96322 -5.0855,1.06698 -6.3135,1.0464 l 0,-1.65292 -4.20826,0 0,0.58045 0,3.62781 4.20826,0 0,-1.39557 c 1.3362,0.0208 3.92147,-0.0969 6.71146,-1.11556 4.01468,-1.46575 8.43532,-4.87061 9.856258,-12.21325 1.35332,-6.99312 5.03831,-10.03765 8.40631,-11.43441 2.32029,-0.96223 4.4513,-1.10871 5.56872,-1.10876 l 0,1.41032 4.20827,0 0,-4.20827 -4.20827,0 z m 1.1609,1.1609 1.88647,0 0,1.88647 -1.88647,0 0,-1.88647 z m -34.751008,25.85724 1.88646,0 0,1.88646 -1.88646,0 0,-1.88646 z"
       id="path20467" />
    <rect
       style="color:#000000;display:inline;overflow:visible;visibility:visible;opacity:1;fill:#aaaaaa;fill-opacity:1;fill-rule:nonzero;stroke:none;stroke-width:2;stroke-miterlimit:4;stroke-dasharray:none;stroke-dashoffset:0;stroke-opacity:1;marker:none;enable-background:accumulate"
       id="rect20480"
       width="69.653999"
       height="69.653999"
       x="38.510155"
       y="862.62006" />
    <text
       xml:space="preserve"
       style="font-style:normal;font-weight:normal;font-size:23.2179985px;line-height:125%;font-family:Sans;letter-spacing:0px;word-spacing:0px;display:inline;fill:#444444;fill-opacity:1;stroke:none;stroke-width:1px;stroke-linecap:butt;stroke-linejoin:miter;stroke-opacity:1"
       x="65.69548"
       y="925.53253"
       id="text20484"
       sodipodi:linespacing="125%"><tspan
         sodipodi:role="line"
         x="65.69548"
         y="925.53253"
         style="font-style:normal;font-variant:normal;font-weight:normal;font-stretch:normal;font-size:8.70674992px;font-family:'Source Sans Pro';-inkscape-font-specification:'Source Sans Pro';fill:#444444"
         id="tspan20486">Text</tspan></text>
    <g
       id="g20200"
       transform="translate(-24,78)">
      <path
         d="m 98.1629,818.43346 -1.7323,-5.07322 q -0.82493,-2.43349 -1.56733,-4.66076 -0.74245,-2.22727 -1.443633,-4.74326 l -0.16497,0 q -0.70118,2.51599 -1.44358,4.74326 -0.74245,2.22727 -1.56733,4.66076 l -1.73235,5.07322 9.651493,0 z m 0.53622,1.60859 -10.765143,0 -3.21715,9.32153 -1.89731,0 9.569,-27.18092 1.897323,0 9.56895,27.18092 -1.97974,0 -3.17593,-9.32153 z"
         style="font-style:normal;font-variant:normal;font-weight:300;font-stretch:normal;font-size:medium;line-height:125%;font-family:'Source Sans Pro';-inkscape-font-specification:'Source Sans Pro Light';letter-spacing:0px;word-spacing:0px;display:inline;fill:#444444;fill-opacity:1;stroke:none;stroke-width:1px;stroke-linecap:butt;stroke-linejoin:miter;stroke-opacity:1"
         id="path20504"
         inkscape:connector-curvature="0" />
      <path
         inkscape:connector-curvature="0"
         id="path20506"
         d="m 106.66958,798.56804 0,1.1609 2.08713,0 0,32.5052 -2.08713,0 0,1.1609 2.08713,0 0,0.0261 1.1609,0 0,-0.0261 2.08712,0 0,-1.1609 -2.08712,0 0,-32.5052 2.08712,0 0,-1.1609 -5.33515,0 z"
         style="color:#000000;font-style:normal;font-variant:normal;font-weight:normal;font-stretch:normal;font-size:medium;line-height:125%;font-family:Sans;text-indent:0;text-align:start;text-decoration:none;text-decoration-line:none;text-decoration-style:solid;text-decoration-color:#000000;letter-spacing:0px;word-spacing:0px;text-transform:none;direction:ltr;block-progression:tb;writing-mode:lr-tb;baseline-shift:baseline;text-anchor:start;white-space:normal;clip-rule:nonzero;display:inline;overflow:visible;visibility:visible;opacity:1;isolation:auto;mix-blend-mode:normal;color-interpolation:sRGB;color-interpolation-filters:linearRGB;solid-color:#000000;solid-opacity:1;fill:#444444;fill-opacity:1;fill-rule:evenodd;stroke:none;stroke-width:2;stroke-linecap:butt;stroke-linejoin:miter;stroke-miterlimit:4;stroke-dasharray:none;stroke-dashoffset:0;stroke-opacity:1;color-rendering:auto;image-rendering:auto;shape-rendering:auto;text-rendering:auto;enable-background:accumulate" />
    </g>
    <rect
       y="554.15448"
       x="53.123352"
       height="40.427601"
       width="40.427601"
       id="rect21331"
       style="color:#000000;display:inline;overflow:visible;visibility:visible;opacity:1;fill:none;fill-opacity:1;fill-rule:nonzero;stroke:#444444;stroke-width:2;stroke-miterlimit:4;stroke-dasharray:none;stroke-dashoffset:0;stroke-opacity:1;marker:none;enable-background:accumulate" />
    <flowRoot
       transform="translate(0,248)"
       xml:space="preserve"
       id="flowRoot20184"
       style="font-style:normal;font-weight:normal;font-size:40px;line-height:125%;font-family:sans-serif;letter-spacing:0px;word-spacing:0px;fill:#777777;fill-opacity:1;stroke:none;stroke-width:1px;stroke-linecap:butt;stroke-linejoin:miter;stroke-opacity:1"><flowRegion
         id="flowRegion20186"><rect
           id="rect20188"
           width="555"
           height="47.999969"
           x="43"
           y="111.36221"
           style="fill:#777777" /></flowRegion><flowPara
         id="flowPara20190"
         style="font-style:normal;font-variant:normal;font-weight:bold;font-stretch:normal;font-size:20px;font-family:'Source Sans Pro';-inkscape-font-specification:'Source Sans Pro Bold';fill:#444444">Customize shapes per tool</flowPara></flowRoot>    <flowRoot
       style="font-style:normal;font-weight:normal;font-size:40px;line-height:125%;font-family:sans-serif;letter-spacing:0px;word-spacing:0px;fill:#aaaaaa;fill-opacity:1;stroke:none;stroke-width:1px;stroke-linecap:butt;stroke-linejoin:miter;stroke-opacity:1"
       id="flowRoot20192"
       xml:space="preserve"
       transform="matrix(0.40462202,-0.40462202,0.40462202,0.40462202,85.53031,495.76902)"><flowRegion
         id="flowRegion20194"><rect
           style="fill:#aaaaaa"
           y="111.36221"
           x="43"
           height="47.999969"
           width="555"
           id="rect20196" /></flowRegion><flowPara
         style="font-style:normal;font-variant:normal;font-weight:bold;font-stretch:normal;font-size:20px;font-family:'Source Sans Pro';-inkscape-font-specification:'Source Sans Pro Bold';fill:#aaaaaa"
         id="flowPara20198">Size, position, rotation</flowPara></flowRoot>    <flowRoot
       transform="matrix(0.40462202,-0.40462202,0.40462202,0.40462202,173.39777,495.86613)"
       xml:space="preserve"
       id="flowRoot20204"
       style="font-style:normal;font-weight:normal;font-size:40px;line-height:125%;font-family:sans-serif;letter-spacing:0px;word-spacing:0px;fill:#aaaaaa;fill-opacity:1;stroke:none;stroke-width:1px;stroke-linecap:butt;stroke-linejoin:miter;stroke-opacity:1"><flowRegion
         id="flowRegion20206"><rect
           id="rect20208"
           width="555"
           height="47.999969"
           x="43"
           y="111.36221"
           style="fill:#aaaaaa" /></flowRegion><flowPara
         id="flowPara20210"
         style="font-style:normal;font-variant:normal;font-weight:bold;font-stretch:normal;font-size:20px;font-family:'Source Sans Pro';-inkscape-font-specification:'Source Sans Pro Bold';fill:#aaaaaa">Color, opacity</flowPara></flowRoot>    <flowRoot
       style="font-style:normal;font-weight:normal;font-size:40px;line-height:125%;font-family:sans-serif;letter-spacing:0px;word-spacing:0px;fill:#aaaaaa;fill-opacity:1;stroke:none;stroke-width:1px;stroke-linecap:butt;stroke-linejoin:miter;stroke-opacity:1"
       id="flowRoot20212"
       xml:space="preserve"
       transform="matrix(0.40462202,-0.40462202,0.40462202,0.40462202,252.456,496.18983)"><flowRegion
         id="flowRegion20214"><rect
           style="fill:#aaaaaa"
           y="111.36221"
           x="43"
           height="47.999969"
           width="555"
           id="rect20216" /></flowRegion><flowPara
         style="font-style:normal;font-variant:normal;font-weight:bold;font-stretch:normal;font-size:20px;font-family:'Source Sans Pro';-inkscape-font-specification:'Source Sans Pro Bold';fill:#aaaaaa"
         id="flowPara20218">Border color, width, opacity</flowPara></flowRoot>    <flowRoot
       transform="matrix(0.40462202,-0.40462202,0.40462202,0.40462202,340.32347,496.18983)"
       xml:space="preserve"
       id="flowRoot20220"
       style="font-style:normal;font-weight:normal;font-size:40px;line-height:125%;font-family:sans-serif;letter-spacing:0px;word-spacing:0px;fill:#aaaaaa;fill-opacity:1;stroke:none;stroke-width:1px;stroke-linecap:butt;stroke-linejoin:miter;stroke-opacity:1"><flowRegion
         id="flowRegion20222"><rect
           id="rect20224"
           width="555"
           height="47.999969"
           x="43"
           y="111.36221"
           style="fill:#aaaaaa" /></flowRegion><flowPara
         id="flowPara20226"
         style="font-style:normal;font-variant:normal;font-weight:bold;font-stretch:normal;font-size:20px;font-family:'Source Sans Pro';-inkscape-font-specification:'Source Sans Pro Bold';fill:#aaaaaa">Border radius</flowPara></flowRoot>    <flowRoot
       style="font-style:normal;font-weight:normal;font-size:40px;line-height:125%;font-family:sans-serif;letter-spacing:0px;word-spacing:0px;fill:#aaaaaa;fill-opacity:1;stroke:none;stroke-width:1px;stroke-linecap:butt;stroke-linejoin:miter;stroke-opacity:1"
       id="flowRoot20228"
       xml:space="preserve"
       transform="matrix(0.40462202,-0.40462202,0.40462202,0.40462202,420.19093,496.18983)"><flowRegion
         id="flowRegion20230"><rect
           style="fill:#aaaaaa"
           y="111.36221"
           x="43"
           height="47.999969"
           width="555"
           id="rect20232" /></flowRegion><flowPara
         style="font-style:normal;font-variant:normal;font-weight:bold;font-stretch:normal;font-size:20px;font-family:'Source Sans Pro';-inkscape-font-specification:'Source Sans Pro Bold';fill:#aaaaaa"
         id="flowPara20234">BG img</flowPara></flowRoot>    <flowRoot
       transform="matrix(0.40462202,-0.40462202,0.40462202,0.40462202,504.0584,495.52625)"
       xml:space="preserve"
       id="flowRoot20236"
       style="font-style:normal;font-weight:normal;font-size:40px;line-height:125%;font-family:sans-serif;letter-spacing:0px;word-spacing:0px;fill:#aaaaaa;fill-opacity:1;stroke:none;stroke-width:1px;stroke-linecap:butt;stroke-linejoin:miter;stroke-opacity:1"><flowRegion
         id="flowRegion20238"><rect
           id="rect20240"
           width="555"
           height="47.999969"
           x="43"
           y="111.36221"
           style="fill:#aaaaaa" /></flowRegion><flowPara
         id="flowPara20242"
         style="font-style:normal;font-variant:normal;font-weight:bold;font-stretch:normal;font-size:20px;font-family:'Source Sans Pro';-inkscape-font-specification:'Source Sans Pro Bold';fill:#aaaaaa">Actions (:hover, link, ...)</flowPara></flowRoot>    <use
       id="use21751"
       xlink:href="#check-square-o-up"
       x="0"
       y="0"
       width="100%"
       height="100%"
       transform="matrix(0.01711933,0,0,-0.01711933,144.87589,591.18876)"
       style="fill:#b6dd75" />
    <use
       style="fill:#b6dd75"
       transform="matrix(0.01711933,0,0,-0.01711933,144.87589,669.18876)"
       height="100%"
       width="100%"
       y="0"
       x="0"
       xlink:href="#check-square-o-up"
       id="use21765" />
    <use
       id="use21767"
       xlink:href="#check-square-o-up"
       x="0"
       y="0"
       width="100%"
       height="100%"
       transform="matrix(0.01711933,0,0,-0.01711933,144.87589,749.18876)"
       style="fill:#b6dd75" />
    <use
       style="fill:#b6dd75"
       transform="matrix(0.01711933,0,0,-0.01711933,144.87589,829.18876)"
       height="100%"
       width="100%"
       y="0"
       x="0"
       xlink:href="#check-square-o-up"
       id="use21769" />
    <use
       id="use21771"
       xlink:href="#check-square-o-up"
       x="0"
       y="0"
       width="100%"
       height="100%"
       transform="matrix(0.01711933,0,0,-0.01711933,144.87589,909.18876)"
       style="fill:#b6dd75" />
    <flowRoot
       style="font-style:normal;font-weight:normal;font-size:40px;line-height:125%;font-family:sans-serif;letter-spacing:0px;word-spacing:0px;fill:#aaaaaa;fill-opacity:1;stroke:none;stroke-width:1px;stroke-linecap:butt;stroke-linejoin:miter;stroke-opacity:1"
       id="flowRoot21775"
       xml:space="preserve"
       transform="matrix(0.40462202,-0.40462202,0.40462202,0.40462202,584.0584,495.52625)"><flowRegion
         id="flowRegion21777"><rect
           style="fill:#aaaaaa"
           y="111.36221"
           x="43"
           height="47.999969"
           width="555"
           id="rect21779" /></flowRegion><flowPara
         style="font-style:normal;font-variant:normal;font-weight:bold;font-stretch:normal;font-size:20px;font-family:'Source Sans Pro';-inkscape-font-specification:'Source Sans Pro Bold';fill:#aaaaaa"
         id="flowPara21781">Text settings</flowPara></flowRoot>    <use
       style="fill:#b6dd75"
       transform="matrix(0.01711933,0,0,-0.01711933,236.87589,591.18876)"
       height="100%"
       width="100%"
       y="0"
       x="0"
       xlink:href="#check-square-o-up"
       id="use21791" />
    <use
       id="use21793"
       xlink:href="#check-square-o-up"
       x="0"
       y="0"
       width="100%"
       height="100%"
       transform="matrix(0.01711933,0,0,-0.01711933,236.87589,669.18876)"
       style="fill:#b6dd75" />
    <use
       id="use21797"
       xlink:href="#check-square-o-up"
       x="0"
       y="0"
       width="100%"
       height="100%"
       transform="matrix(0.01711933,0,0,-0.01711933,236.87589,829.18876)"
       style="fill:#b6dd75" />
    <use
       style="fill:#b6dd75"
       transform="matrix(0.01711933,0,0,-0.01711933,236.87589,909.18876)"
       height="100%"
       width="100%"
       y="0"
       x="0"
       xlink:href="#check-square-o-up"
       id="use21799" />
    <use
       id="use21803"
       xlink:href="#check-square-o-up"
       x="0"
       y="0"
       width="100%"
       height="100%"
       transform="matrix(0.01711933,0,0,-0.01711933,322.87589,591.18876)"
       style="fill:#b6dd75" />
    <use
       style="fill:#b6dd75"
       transform="matrix(0.01711933,0,0,-0.01711933,322.87589,669.18876)"
       height="100%"
       width="100%"
       y="0"
       x="0"
       xlink:href="#check-square-o-up"
       id="use21805" />
    <use
       id="use21807"
       xlink:href="#check-square-o-up"
       x="0"
       y="0"
       width="100%"
       height="100%"
       transform="matrix(0.01711933,0,0,-0.01711933,322.87589,749.18876)"
       style="fill:#b6dd75" />
    <use
       style="fill:#b6dd75"
       transform="matrix(0.01711933,0,0,-0.01711933,322.87589,829.18876)"
       height="100%"
       width="100%"
       y="0"
       x="0"
       xlink:href="#check-square-o-up"
       id="use21809" />
    <use
       style="fill:#b6dd75"
       transform="matrix(0.01711933,0,0,-0.01711933,404.87589,591.18876)"
       height="100%"
       width="100%"
       y="0"
       x="0"
       xlink:href="#check-square-o-up"
       id="use21815" />
    <use
       id="use21827"
       xlink:href="#check-square-o-up"
       x="0"
       y="0"
       width="100%"
       height="100%"
       transform="matrix(0.01711933,0,0,-0.01711933,486.87589,591.18876)"
       style="fill:#b6dd75" />
    <use
       style="fill:#b6dd75"
       transform="matrix(0.01711933,0,0,-0.01711933,486.87589,669.18876)"
       height="100%"
       width="100%"
       y="0"
       x="0"
       xlink:href="#check-square-o-up"
       id="use21829" />
    <use
       style="fill:#b6dd75"
       transform="matrix(0.01711933,0,0,-0.01711933,486.87589,829.18876)"
       height="100%"
       width="100%"
       y="0"
       x="0"
       xlink:href="#check-square-o-up"
       id="use21833" />
    <use
       style="fill:#b6dd75"
       transform="matrix(0.01711933,0,0,-0.01711933,578.87589,591.18876)"
       height="100%"
       width="100%"
       y="0"
       x="0"
       xlink:href="#check-square-o-up"
       id="use21839" />
    <use
       id="use21841"
       xlink:href="#check-square-o-up"
       x="0"
       y="0"
       width="100%"
       height="100%"
       transform="matrix(0.01711933,0,0,-0.01711933,578.87589,669.18876)"
       style="fill:#b6dd75" />
    <use
       style="fill:#b6dd75"
       transform="matrix(0.01711933,0,0,-0.01711933,578.87589,749.18876)"
       height="100%"
       width="100%"
       y="0"
       x="0"
       xlink:href="#check-square-o-up"
       id="use21843" />
    <use
       id="use21845"
       xlink:href="#check-square-o-up"
       x="0"
       y="0"
       width="100%"
       height="100%"
       transform="matrix(0.01711933,0,0,-0.01711933,578.87589,829.18876)"
       style="fill:#b6dd75" />
    <use
       style="fill:#b6dd75"
       transform="matrix(0.01711933,0,0,-0.01711933,578.87589,909.18876)"
       height="100%"
       width="100%"
       y="0"
       x="0"
       xlink:href="#check-square-o-up"
       id="use21847" />
    <use
       id="use21859"
       xlink:href="#check-square-o-up"
       x="0"
       y="0"
       width="100%"
       height="100%"
       transform="matrix(0.01711933,0,0,-0.01711933,658.87589,909.18876)"
       style="fill:#b6dd75" />
  </g>
</svg>
